<mxfile host="app.diagrams.net" modified="2024-05-27T21:25:14.733Z" agent="Mozilla/5.0 (Windows NT 10.0; Win64; x64) AppleWebKit/537.36 (KHTML, like Gecko) Chrome/125.0.0.0 Safari/537.36" version="24.4.4" etag="KqNA79Wv0nkvGC4_mbWI" type="github">
  <diagram name="Page-1" id="FDZq90PefyKig283kZAh">
    <mxGraphModel>
      <root>
        <mxCell id="0" />
        <mxCell id="1" parent="0" />
      </root>
    </mxGraphModel>
  </diagram>
</mxfile>
